<svg id="Layer_1" data-name="Layer 1" xmlns="http://www.w3.org/2000/svg" viewBox="0 0 100 100">
    <defs>
        <style>
            .cls-1 {
                fill: #2B3579;
                fill-rule: evenodd;
            }
        </style>
    </defs>
    <path class="cls-1"
        d="M50,6.25A43.75,43.75,0,1,0,93.75,50,43.75,43.75,0,0,0,50,6.25ZM30.44,59.07c3.8,1.13,2.94-6.07,4.64-4.79s3.67,8.6,3.24,10.27-4.65,4.8-7,5.93-6.62-6.34-6.62-6.34c-1.7-8,2-6.2,5.79-5.07ZM56.58,90.35a43.23,43.23,0,0,1-39.35-17c1.06-10.62,10.12,3.49,15.19,3.78S35.63,74,38.58,74.9s3.16,2.18,5.89,2.41-1.41-6.79,1.13-6.76,3.53,6,5.41,8.3,9.26,3.08,10.49,6.69-4.92,4.81-4.92,4.81Zm23-43.12c-2.33,1.48,2.11,9.94-3.8,19.66s-11.51,2.3-12,.21c-.38-1.45,3.16-4-4.67-9.93s-1.25-13.53.64-17.75-1.89-3.4-3-4.46S58,33.07,55.66,31.8s-15.22,4.65-18.19-6.13S47.19,10,47.19,10c19.57-2.42,34.14,13.3,36,16,2.3,3.31,6,12.2,5.32,16.43s-6.68,3.32-9,4.79Z" />
</svg>